<?xml version="1.0" standalone="no"?><svg xmlns="http://www.w3.org/2000/svg" viewBox="0 0 1440 320"><path fill="#0099ff" fill-opacity="0.97" d="M0,192L34.3,192C68.6,192,137,192,206,208C274.3,224,343,256,411,250.7C480,245,549,203,617,186.7C685.7,171,754,181,823,197.3C891.4,213,960,235,1029,224C1097.1,213,1166,171,1234,176C1302.9,181,1371,235,1406,261.3L1440,288L1440,320L1405.7,320C1371.4,320,1303,320,1234,320C1165.7,320,1097,320,1029,320C960,320,891,320,823,320C754.3,320,686,320,617,320C548.6,320,480,320,411,320C342.9,320,274,320,206,320C137.1,320,69,320,34,320L0,320Z"></path></svg>