<?xml version="1.0" standalone="no"?><svg xmlns="http://www.w3.org/2000/svg" viewBox="0 0 1440 320"><path fill="#4b62e5" fill-opacity="1" d="M0,160L26.7,149.3C53.3,139,107,117,160,138.7C213.3,160,267,224,320,245.3C373.3,267,427,245,480,224C533.3,203,587,181,640,181.3C693.3,181,747,203,800,208C853.3,213,907,203,960,186.7C1013.3,171,1067,149,1120,138.7C1173.3,128,1227,128,1280,128C1333.3,128,1387,128,1413,128L1440,128L1440,320L1413.3,320C1386.7,320,1333,320,1280,320C1226.7,320,1173,320,1120,320C1066.7,320,1013,320,960,320C906.7,320,853,320,800,320C746.7,320,693,320,640,320C586.7,320,533,320,480,320C426.7,320,373,320,320,320C266.7,320,213,320,160,320C106.7,320,53,320,27,320L0,320Z"></path></svg>